<svg xmlns="http://www.w3.org/2000/svg" width="220" height="28" fill="none"><path fill="#366AA5" fill-rule="evenodd" d="M17.203 25.78c-1.567 1.197-4.487 2.22-7.07 2.22C3.746 28 0 23.255 0 14.084 0 4.672 4.88.086 10.277.086c2.497 0 4.974.89 6.598 2.007l.28 7.363h-.724l-.842-2.071c-1.51-3.71-3.134-6.235-5.574-6.235-3.133 0-5.512 4.24-5.512 12.215 0 8.893 2.35 13.624 5.804 13.624 2.437 0 3.832-2.14 5.601-6.286l.842-1.994h.726l-.273 7.07ZM64.798 19.768c-1.116.337-1.294 1.196-1.294 3.19v.305c0 1.872 0 2.148 1.004 2.67v.614c-1.407.796-4.175 1.38-6.63 1.38-4.645 0-8.239-3.651-8.239-10.706 0-7.24 4.397-10.766 8.55-10.766 1.92 0 3.901.763 5.152 1.622l.14 5.525h-.559l-.647-1.536c-1.183-2.79-2.366-4.508-4.286-4.508-2.455 0-4.242 3.067-4.242 9.109 0 6.843 1.81 10.153 4.465 10.153 1.92 0 2.389-1.194 2.389-2.575v-.52c0-2.944-.246-3.56-1.496-3.929l-.737-.212v-.614c.447 0 2.88.06 3.683.06.804 0 2.881-.06 3.372-.06v.614l-.625.184ZM113.623 7.32c-1.517.49-2.031 1.534-3.078 4.05l-3.15 7.546v2.361c0 4.694.158 5.091 1.675 5.522l.737.215v.613c-.424 0-3.439-.062-4.242-.062-.804 0-3.818.062-4.244.062v-.613l.739-.215c1.517-.43 1.674-.828 1.674-5.522v-1.962l-4.13-9.204c-.76-1.626-1.362-2.392-2.435-2.76l-.444-.154v-.613c.423 0 2.99.06 3.793.06.782 0 4.22-.06 4.623-.06v.613l-.469.123c-.96.245-1.206.738-1.206 1.257 0 .46.133.86.493 1.749l2.901 7.117 2.479-6.504c.356-.95.513-1.533.513-2.239 0-.642-.404-1.135-1.139-1.349l-.536-.154v-.613c.422 0 2.343.06 3.171.06.804 0 2.231-.06 2.656-.06v.613l-.381.123ZM89.115 17.32c-.314 0-.559-.03-.714-.06V7.718a6.82 6.82 0 0 1 1.294-.124c1.764 0 2.522 1.811 2.522 4.663 0 3.743-1.406 5.062-3.102 5.062Zm-18.292 1.656 2.343-8.957 2.321 8.957h-4.664Zm28.004 8.006c-.917-.156-1.704-.569-2.835-2.785l-3.528-6.846c2.008-.982 3.482-2.883 3.482-5.46 0-3.59-2.412-5.277-5.894-5.277-.984 0-2.545.03-3.348.03-.804 0-3.55-.06-3.997-.06v.613l.736.215c1.117.337 1.295 1.197 1.295 5.49v8.405c0 4.248-.176 5.133-1.26 5.479-.491.152-.844.093-1.017.04-.947-.392-1.44-1.442-1.928-3.22L76.87 10.328h.004L75.84 6.585h-3.584l.494 1.787-4.141 14.255c-.76 2.607-1.562 3.927-2.612 4.294l-.267.094v.611c.445 0 2.03-.06 2.836-.06.804 0 2.234.06 2.634.06v-.611l-.514-.122c-1.05-.25-1.273-.924-1.273-1.69 0-.766.223-1.778.491-2.76l.6-2.352 5.266.01.857 3.263c.221.859.332 1.533.332 1.961 0 .86-.311 1.319-1.382 1.568l-.56.122v.611c.402 0 3.371-.06 4.175-.06.595 0 2.23.034 3.267.052h.756c1.062-.017 2.736-.052 3.352-.052.804 0 3.64.06 4.066.06v-.61l-.738-.218c-1.362-.397-1.495-.856-1.495-5.52v-3.16c.133.032.289.062.445.062l3.39 6.749c.912 1.864 2.341 2.814 4.185 2.82.932-.004 1.775-.063 2.405-.183v-.584Zm-2.388.767-.018-.002-.067.002h.085ZM23.51 18.976l2.343-8.957 2.321 8.957H23.51Zm24.92 2.762-.827 1.718c-1.095 2.268-1.898 3.037-3.439 3.037h-.2c-1.944 0-2.278-.587-2.278-3.774v-9.785c0-4.693.156-5.093 1.674-5.522l.737-.215v-.613c-.425 0-3.438.06-4.241.06-.804 0-3.418-.06-3.864-.06v.613l.737.215c1.118.337 1.296 1.197 1.296 5.491v8.404c0 3.928-.15 4.98-1.032 5.39-.933.35-1.602.206-1.848.128-.945-.393-1.437-1.442-1.925-3.22l-4.696-17.02h-3.59l.5 1.804-4.137 14.237c-.759 2.607-1.561 3.927-2.612 4.294l-.267.094v.611c.445 0 2.03-.06 2.836-.06.804 0 2.234.06 2.635.06v-.611l-.515-.122c-1.05-.25-1.273-.924-1.273-1.69 0-.766.224-1.778.492-2.76l.6-2.352 5.265.01.857 3.263c.221.859.332 1.533.332 1.961 0 .86-.311 1.319-1.382 1.568l-.559.122v.611c.402 0 3.37-.06 4.174-.06.747 0 4.023.06 4.023.06.84-.004 3.651-.06 4.422-.06.802 0 4.04.03 5.313.03h2.433l.893-5.857h-.535ZM136.999 27.878c-1.046 0-4.731.078-5.282.078v-.786l.956-.274c1.771-.511 1.947-1.102 1.947-7.077v-4.943h-8.013v4.943c0 5.975.173 6.566 1.943 7.077l.959.274v.786c-.551 0-4.236-.078-5.282-.078-1.046 0-4.064.078-4.643.078v-.786l.957-.274c1.452-.433 1.999-1.533 1.999-7.037V9.09c0-5.504-.547-6.602-1.999-7.036l-.957-.274V.992c.579 0 3.597.08 4.643.08 1.046 0 4.731-.08 5.282-.08v.787l-.959.274c-1.77.511-1.943 1.102-1.943 7.077v4.537h8.013V9.13c0-5.975-.176-6.566-1.947-7.077l-.956-.274V.992c.551 0 4.236.08 5.282.08 1.045 0 4.045-.08 4.623-.08v.787l-.954.274c-1.452.434-1.993 1.532-1.993 7.035V19.86c0 5.503.541 6.604 1.993 7.036l.954.274v.786c-.578 0-3.578-.078-4.623-.078ZM155.76 27.917h-2.32c-1.251 0-5.517-.03-6.32-.03-.779 0-3.482.06-3.929.06v-.612l.737-.215c1.117-.338 1.296-1.197 1.296-5.49v-8.405c0-4.296-.179-5.154-1.296-5.492l-.737-.215v-.613c.447 0 3.373.06 4.151.06.804 0 5.739-.03 6.142-.03h1.787l.69 5.183h-.489l-.782-1.41c-.982-1.779-1.942-2.606-3.796-2.606h-.2c-.648 0-1.25.09-1.81.213v8.1l1.184-.062c2.568-.123 2.926-.828 3.081-2.7l.023-.276h.536c0 .674-.046 2.544-.046 3.65 0 1.134.046 3.19.046 3.834h-.536l-.023-.275c-.155-1.871-.425-2.67-3.081-2.823l-1.184-.06v5.337c0 3.189.336 3.773 2.277 3.773h.289c1.745 0 2.636-.676 3.91-2.945l.623-1.105h.493l-.716 5.154ZM210.626 28c-2.119 0-2.945-.09-3.972-.09-.805 0-3.438.06-3.865.06v-.613l.738-.215c1.118-.337 1.295-1.196 1.295-5.492v-8.403c0-4.296-.177-5.155-1.295-5.492l-.738-.215v-.612c.427 0 2.188.06 2.992.06.873 0 3.128-.06 4.131-.06 5.603 0 9.288 3.924 9.288 10.582 0 6.748-3.616 10.49-8.574 10.49Zm-1.093-19.97c-.379 0-.804.033-1.049.062v15.123c0 2.792.537 3.743 2.345 3.743 2.59 0 4.262-3.008 4.262-9.202 0-6.35-1.718-9.725-5.558-9.725ZM176.713 19.27l2.342-8.957 2.322 8.957h-4.664Zm24.919 2.781-.826 1.718c-1.096 2.268-1.899 3.036-3.439 3.036h-.201c-1.944 0-2.277-.585-2.277-3.773v-9.786c0-4.693.156-5.093 1.674-5.52l.737-.217v-.612c-.426 0-3.438.06-4.242.06-.804 0-3.417-.06-3.863-.06v.612l.737.216c1.118.337 1.295 1.197 1.295 5.491v8.404c0 3.928-.15 4.98-1.031 5.39-.933.349-1.603.207-1.848.128-.945-.393-1.438-1.442-1.925-3.22l-4.697-17.021h-3.585l.497 1.798L174.5 22.94c-.513 1.761-1.049 2.923-1.664 3.612a.644.644 0 0 1-.287.166v1.185c1.866-.005 4.135.014 4.542.028v-.604l-.515-.122c-1.049-.25-1.272-.923-1.272-1.69 0-.766.223-1.778.491-2.76l.6-2.352 5.266.01.856 3.263c.222.858.333 1.533.333 1.962 0 .859-.312 1.318-1.383 1.567l-.559.122v.611c.402 0 3.371-.06 4.175-.06.747 0 4.023.06 4.023.06.839-.005 3.65-.06 4.422-.06.802 0 4.039.03 5.312.03h2.433l.894-5.857h-.535Z" clip-rule="evenodd"/><path fill="#366AA5" fill-rule="evenodd" d="M164.887 17.614c-.306 0-.55-.029-.706-.06V8.02a6.872 6.872 0 0 1 1.295-.123c.661 0 1.181.254 1.573.722.042.052.081.108.12.165.02.027.041.052.06.08.524.809.764 2.083.764 3.687 0 3.743-1.408 5.063-3.106 5.063Zm8.31 9.079c-.358-.324-.732-.811-1.153-1.553-.101-.19-.206-.393-.322-.62l-2.876-5.559-.643-1.247c2.008-.983 3.524-2.926 3.524-5.503 0-1.125-.238-2.063-.67-2.82-.946-1.667-2.835-2.465-5.23-2.465-.983 0-2.546.03-3.349.03-.803 0-3.551-.06-3.999-.06v.612l.738.216c1.114.338 1.295 1.197 1.295 5.493v8.402c0 4.296-.181 5.154-1.295 5.491l-.738.216v.613c.448 0 3.062-.061 3.863-.061.116 0 .277 0 .464.003v.008c1.108.012 3.244.057 3.608.057v-.611l-.007-.002v-.007l-.737-.216c-.424-.123-.728-.254-.948-.515-.478-.58-.541-1.8-.541-4.998V18.44c.133.03.288.06.443.06 0 0 3.402 6.803 3.458 6.867.707 1.375 1.706 2.244 2.953 2.566a70.494 70.494 0 0 1 2.162-.028v-1.211Z" clip-rule="evenodd"/></svg>
